#N canvas 321 26 636 566 24;
#X obj 37 275 readsf~ 2;
#X msg 37 230 start;
#X obj 37 319 throw~ out1;
#X obj 98 362 throw~ out2;
#X obj 37 14 r activatefirstpatcher;
#X msg 84 120 open puredata/redqueen1.wav;
#X obj 360 418 switch~;
#X obj 37 72 t b b b;
#X msg 360 366 1;
#X msg 272 364 0;
#X obj 160 467 s playfinishedfirst;
#X connect 0 0 2 0;
#X connect 0 1 3 0;
#X connect 0 2 9 0;
#X connect 0 2 10 0;
#X connect 1 0 0 0;
#X connect 4 0 7 0;
#X connect 5 0 0 0;
#X connect 7 0 1 0;
#X connect 7 1 5 0;
#X connect 7 2 8 0;
#X connect 8 0 6 0;
#X connect 9 0 6 0;
