#N canvas 686 24 752 597 24;
#X obj 37 275 readsf~ 2;
#X msg 37 230 start;
#X obj 37 319 throw~ out1;
#X obj 98 362 throw~ out2;
#X obj 37 14 r activatesecondpatcher;
#X msg 84 117 open puredata/redqueen5.wav;
#X obj 354 428 switch~;
#X msg 354 361 1;
#X msg 270 362 0;
#X obj 37 72 t b b b;
#X obj 161 474 s playfinishedsecond;
#X connect 0 0 2 0;
#X connect 0 1 3 0;
#X connect 0 2 8 0;
#X connect 0 2 10 0;
#X connect 1 0 0 0;
#X connect 4 0 9 0;
#X connect 5 0 0 0;
#X connect 7 0 6 0;
#X connect 8 0 6 0;
#X connect 9 0 1 0;
#X connect 9 1 5 0;
#X connect 9 2 7 0;
