#N canvas 342 82 997 817 10;
#X obj 38 193 dac~;
#X obj 38 66 clip~ -1 1;
#X obj 91 150 clip~ -1 1;
#X obj 38 24 catch~ out1;
#X obj 91 109 catch~ out2;
#X obj 205 109 switch~;
#X obj 205 28 loadbang;
#X msg 205 65 1;
#X connect 1 0 0 0;
#X connect 2 0 0 1;
#X connect 3 0 1 0;
#X connect 4 0 2 0;
#X connect 6 0 7 0;
#X connect 7 0 5 0;
